<?xml version="1.0" encoding="utf-8"?>
<!-- Generator: Adobe Illustrator 21.1.0, SVG Export Plug-In . SVG Version: 6.00 Build 0)  -->
<svg version="1.1" id="Layer_1" xmlns="http://www.w3.org/2000/svg" xmlns:xlink="http://www.w3.org/1999/xlink" x="0px" y="0px"
	 viewBox="0 0 216 130" style="enable-background:new 0 0 216 130;" xml:space="preserve">
<style type="text/css">
	.st0{fill-rule:evenodd;clip-rule:evenodd;fill:#FFFFFF;}
	.st1{fill-rule:evenodd;clip-rule:evenodd;fill:#FBAE19;}
	.st2{fill-rule:evenodd;clip-rule:evenodd;fill:#D8D9DA;}
</style>
<g>
	<path class="st0" d="M18.5,100.4c-1.1,0-2,0.2-2.9,0.6c-0.8,0.4-1.5,0.9-2.1,1.6c-0.6,0.7-1.1,1.4-1.5,2.3
		c-0.4,0.9-0.7,1.7-0.8,2.7h8.3c0.7,0,1.3-0.1,1.9-0.1c0.6-0.1,1-0.2,1.4-0.4c0.4-0.2,0.7-0.5,0.9-0.8c0.2-0.4,0.3-0.8,0.3-1.4
		c0-0.8-0.2-1.5-0.5-2c-0.3-0.6-0.8-1-1.3-1.4c-0.5-0.4-1.1-0.6-1.8-0.8C19.9,100.4,19.2,100.4,18.5,100.4z M18.5,100.4L18.5,100.4
		L18.5,100.4z M11.5,115.3c0.6,2,1.6,3.4,3.2,4.4c1.5,1,3.7,1.5,6.5,1.5c0.8,0,1.7-0.1,2.4-0.2c0.8-0.1,1.6-0.4,2.3-0.6
		c0.7-0.2,1.5-0.5,2.1-0.9c0.7-0.3,1.3-0.7,2-0.9l2.8,6.8c-2,1.2-4,2-6.2,2.7c-2.2,0.7-4.6,1-7.1,1c-5.8,0-10.3-1.5-13.5-4.6
		c-3.1-3.1-4.7-7.7-4.7-13.8c0-3,0.4-5.7,1.3-8c0.9-2.3,2.1-4.2,3.6-5.7c1.6-1.5,3.4-2.6,5.6-3.4c2.2-0.8,4.6-1.2,7.2-1.2
		c2.3,0,4.3,0.3,6.1,1c1.8,0.6,3.4,1.5,4.7,2.6c1.3,1.1,2.3,2.4,3,3.8c0.7,1.4,1,2.9,1,4.5c0,1.3-0.2,2.6-0.6,3.9
		c-0.4,1.3-1,2.5-2,3.6c-1,1-2.3,1.9-3.9,2.5c-1.6,0.7-3.7,1-6.2,1H11.5z"/>
	<path class="st0" d="M36.7,110.4c0-2.9,0.4-5.5,1.2-7.7c0.8-2.3,1.9-4.1,3.3-5.7c1.4-1.5,3.2-2.7,5.2-3.5c2.1-0.8,4.4-1.2,6.9-1.2
		c2.1,0,4.1,0.3,6.2,0.8c2.1,0.5,4.1,1.4,6.2,2.5l-2.7,6.5c-1.2-0.6-2.4-1-3.6-1.3c-1.2-0.3-2.5-0.5-3.9-0.5c-3,0-5.2,0.9-6.8,2.6
		c-1.5,1.7-2.3,4.3-2.3,7.7c0,1.8,0.2,3.3,0.7,4.6c0.4,1.3,1,2.3,1.8,3.2c0.8,0.9,1.7,1.5,2.8,1.9c1.1,0.4,2.3,0.6,3.7,0.6
		c1.4,0,2.8-0.2,4-0.5c1.2-0.4,2.5-0.8,3.6-1.3l2.8,6.5c-0.9,0.5-1.8,0.9-2.8,1.3c-0.9,0.4-1.9,0.7-2.9,1c-1,0.3-2.1,0.5-3.3,0.7
		c-1.2,0.1-2.4,0.2-3.7,0.2c-3,0-5.6-0.5-7.6-1.5c-2.1-1-3.8-2.3-5.1-4c-1.3-1.7-2.3-3.7-2.8-5.9C36.9,115.3,36.7,112.9,36.7,110.4z
		"/>
	<rect x="69.9" y="78.6" class="st0" width="10" height="49.7"/>
	<path class="st0" d="M101.6,100.4c-1.1,0-2.1,0.2-2.9,0.6c-0.8,0.4-1.5,0.9-2.1,1.6c-0.6,0.7-1.1,1.4-1.5,2.3
		c-0.4,0.9-0.7,1.7-0.8,2.7h8.3c0.7,0,1.4-0.1,1.9-0.1c0.6-0.1,1-0.2,1.5-0.4c0.4-0.2,0.7-0.5,0.9-0.8c0.2-0.4,0.3-0.8,0.3-1.4
		c0-0.8-0.1-1.5-0.5-2c-0.3-0.6-0.7-1-1.3-1.4c-0.6-0.4-1.2-0.6-1.8-0.8C102.9,100.4,102.3,100.4,101.6,100.4z M101.6,100.4
		L101.6,100.4L101.6,100.4z M94.5,115.3c0.6,2,1.6,3.4,3.2,4.4c1.5,1,3.7,1.5,6.5,1.5c0.8,0,1.7-0.1,2.4-0.2
		c0.8-0.1,1.6-0.4,2.3-0.6c0.7-0.2,1.5-0.5,2.1-0.9c0.7-0.3,1.4-0.7,2-0.9l2.8,6.8c-2,1.2-4,2-6.2,2.7c-2.2,0.7-4.6,1-7.1,1
		c-5.8,0-10.3-1.5-13.5-4.6c-3.1-3.1-4.7-7.7-4.7-13.8c0-3,0.4-5.7,1.3-8c0.8-2.3,2-4.2,3.6-5.7c1.6-1.5,3.4-2.6,5.6-3.4
		c2.2-0.8,4.6-1.2,7.2-1.2c2.3,0,4.3,0.3,6.1,1c1.8,0.6,3.4,1.5,4.7,2.6c1.3,1.1,2.3,2.4,3,3.8c0.7,1.4,1.1,2.9,1.1,4.5
		c0,1.3-0.2,2.6-0.6,3.9c-0.4,1.3-1,2.5-2,3.6c-0.9,1-2.3,1.9-3.9,2.5c-1.7,0.7-3.7,1-6.2,1H94.5z"/>
	<path class="st0" d="M121.4,118.4c1.9,0.9,3.8,1.7,5.6,2.1c1.8,0.5,3.5,0.7,5.1,0.7c0.7,0,1.5-0.1,2.1-0.3c0.7-0.2,1.2-0.4,1.7-0.7
		c0.5-0.3,0.8-0.7,1.1-1.1c0.3-0.4,0.4-0.8,0.4-1.3c0-0.4-0.1-0.8-0.4-1.1c-0.3-0.4-0.7-0.7-1.3-1c-0.6-0.3-1.3-0.7-2.3-1
		c-0.9-0.3-2.1-0.7-3.4-1.2c-1.5-0.5-2.8-1-4.1-1.5c-1.2-0.6-2.3-1.2-3.3-2c-0.9-0.8-1.7-1.8-2.2-2.9c-0.5-1.2-0.8-2.5-0.8-4.2
		c0-1.8,0.4-3.4,1.2-4.7c0.8-1.3,1.8-2.4,3.1-3.3c1.2-0.8,2.7-1.5,4.4-1.9c1.7-0.4,3.4-0.6,5.2-0.6c2.8,0,5.2,0.3,7.3,0.9
		c2.1,0.6,4,1.3,5.6,2.1l-2.5,6.8c-1.7-0.6-3.2-1.1-4.5-1.4c-1.4-0.3-2.6-0.4-3.8-0.4c-0.9,0-1.7,0.1-2.4,0.1
		c-0.7,0.1-1.4,0.3-1.9,0.5c-0.5,0.2-0.9,0.6-1.2,0.9c-0.3,0.4-0.4,0.9-0.4,1.4c0,0.5,0.2,0.9,0.7,1.3c0.4,0.4,1,0.7,1.7,0.9
		c0.7,0.3,1.5,0.5,2.3,0.7c0.9,0.2,1.7,0.5,2.6,0.7c1.8,0.6,3.4,1.2,4.7,2c1.3,0.7,2.4,1.5,3.2,2.5c0.8,0.9,1.5,1.9,1.8,3.1
		c0.4,1.1,0.6,2.3,0.6,3.7c0,1.7-0.4,3.3-1.1,4.7c-0.7,1.3-1.7,2.5-3,3.4c-1.3,0.9-2.7,1.6-4.4,2.1c-1.7,0.4-3.4,0.7-5.3,0.7
		c-1.8,0-3.4-0.1-4.9-0.4c-1.5-0.2-2.9-0.5-4.1-0.9c-1.2-0.3-2.3-0.7-3.2-1.1c-0.9-0.4-1.7-0.8-2.3-1.1L121.4,118.4z"/>
	<path class="st0" d="M174.8,110.8c0,1.8,0.2,3.3,0.6,4.6c0.4,1.3,0.9,2.3,1.5,3.2c0.7,0.8,1.4,1.4,2.3,1.8c0.9,0.4,1.9,0.6,2.9,0.6
		c1.3,0,2.5-0.2,3.7-0.7c1.2-0.5,2.1-1,2.9-1.7v-17.2c-0.4-0.1-1-0.4-2-0.6c-1-0.2-2.1-0.4-3.4-0.4c-1.3,0-2.5,0.2-3.5,0.6
		c-1,0.4-1.9,1.1-2.7,2c-0.7,0.9-1.3,2-1.7,3.3C175,107.5,174.8,109.1,174.8,110.8z M174.8,110.8L174.8,110.8L174.8,110.8z
		 M165,111.3c0-3.2,0.4-6,1.3-8.4c0.9-2.4,2.2-4.4,3.8-5.9c1.7-1.6,3.7-2.7,6-3.5c2.3-0.8,5-1.2,7.9-1.2c1.4,0,2.8,0.1,4.1,0.3
		c1.4,0.2,2.7,0.4,3.9,0.8c1.3,0.4,2.5,0.7,3.6,1.2c1.1,0.4,2.1,0.8,3,1.3v32.4h-8.8l-1.1-3.6c-0.6,0.5-1.2,0.9-1.8,1.5
		c-0.7,0.5-1.4,1-2.2,1.4c-0.8,0.4-1.8,0.8-2.8,1c-1,0.3-2.1,0.4-3.4,0.4c-2,0-3.9-0.4-5.6-1.2c-1.7-0.8-3.1-1.9-4.3-3.4
		c-1.2-1.5-2.1-3.3-2.7-5.6C165.3,116.6,165,114.1,165,111.3z"/>
	<rect x="204.7" y="78.6" class="st0" width="10" height="49.7"/>
	<path class="st0" d="M156.2,100.7c-1.9,0-3.6-0.8-5-2v29.5h10V98.7C159.9,99.9,158.2,100.7,156.2,100.7z"/>
	<path class="st1" d="M161.2,93.2c0,2.8-2.2,5-5,5c-2.8,0-5-2.2-5-5c0-2.8,2.2-5,5-5C159,88.2,161.2,90.5,161.2,93.2z"/>
	<path class="st2" d="M108,1.7c-20.2,0-36.6,16.4-36.6,36.6c0,18.5,13.6,33.7,31.4,36.2c0-0.1,0-0.2,0-0.3v-13
		c-1.2-0.3-2.3-0.7-3.5-1.1c-2.7-1.2-5.1-2.8-7.1-4.8c-2-2-3.6-4.4-4.8-7.1c-1.2-2.7-1.7-5.6-1.7-8.6c0-3.1,0.6-6,1.7-8.7
		c1.2-2.7,2.8-5.1,4.8-7.1c2-2,4.4-3.6,7.1-4.8c2.7-1.2,5.6-1.7,8.7-1.7c3.1,0,6,0.6,8.7,1.7c2.7,1.2,5.1,2.8,7.1,4.8
		c2,2,3.6,4.4,4.8,7.1c0.9,2,1.4,4.2,1.6,6.5c0.1,0.3,0.1,0.6,0.1,0.9v2.4c0,2.2-1.8,4.1-4,4.1h-18.9c-2.2,0-4-1.8-4-4.1v-2.4
		c0-2.2,1.8-4,4-4h11.2c-0.4-1.2-1.1-2.3-2-3.3c-2.4-2.4-5.3-3.6-8.7-3.6c-3.3,0-6.2,1.2-8.7,3.6c-1.1,1.1-3.4,4.6-3.4,8.6
		c0,3.8,2.3,7.6,3.4,8.6c1.2,1.2,2.5,2.1,4,2.7c1.4,0.6,2.8,0.9,4.4,0.9h1.5c2.2,0,4,1.8,4,4v18.6c0,0.1,0,0.2-0.1,0.3
		c17.7-2.5,31.4-17.7,31.4-36.2C144.6,18.1,128.2,1.7,108,1.7z"/>
	<path class="st1" d="M108,1C87.8,1,71.4,17.4,71.4,37.6c0,18.4,13.6,33.7,31.4,36.2c0-0.1,0-0.2,0-0.4v-13
		c-1.2-0.3-2.3-0.7-3.5-1.1c-2.7-1.2-5.1-2.8-7.1-4.8c-2-2-3.6-4.4-4.8-7.1c-1.2-2.7-1.7-5.6-1.7-8.7c0-3.1,0.6-6,1.7-8.7
		c1.2-2.7,2.8-5.1,4.8-7.1c2-2,4.4-3.6,7.1-4.8c2.7-1.2,5.6-1.7,8.7-1.7c3.1,0,6,0.6,8.7,1.7c2.7,1.2,5.1,2.8,7.1,4.8
		c2,2,3.6,4.4,4.8,7.1c0.9,2,1.4,4.2,1.6,6.5c0.1,0.3,0.1,0.6,0.1,0.9v2.4c0,2.2-1.8,4-4,4h-18.9c-2.2,0-4-1.8-4-4v-2.4
		c0-2.2,1.8-4.1,4-4.1h11.2c-0.4-1.2-1.1-2.3-2-3.3c-2.4-2.4-5.3-3.5-8.7-3.5c-3.3,0-6.2,1.2-8.7,3.5c-1.1,1.1-3.4,4.6-3.4,8.6
		c0,3.8,2.3,7.6,3.4,8.6c1.2,1.2,2.5,2.1,4,2.7c1.4,0.6,2.8,0.9,4.4,0.9h1.5c2.2,0,4,1.8,4,4v18.6c0,0.1,0,0.2-0.1,0.4
		c17.7-2.5,31.4-17.8,31.4-36.2C144.6,17.4,128.2,1,108,1z"/>
</g>
</svg>
